:version 1.10
:name ASF
:units
  mass 1
  length 1
  angle deg
:documentation
  ASF file generated by Kaydara
:root
  axis xyz
  order  tx ty tz rx ry rz
  position 0 0 0
  orientation 0 0 0
:bonedata
  begin
    id 1
    name abdomenDummy
    direction 1 -1.27917e-005 -1.26829e-007
    length 1.79048
    axis 0 0 0 xyz
  end
  begin
    id 2
    name abdomen
    direction 0.987238 0.159249 -9.68575e-008
    length 8.61378
    axis 2.73208e-005 5.54953e-006 9.16328 xyz
    dof rx ry rz
  end
  begin
    id 3
    name chest
    direction 0 0 0
    length 0
    axis 2.65071e-005 8.63688e-006 2.59796 xyz
    dof rx ry rz
  end
  begin
    id 4
    name neckDummyDummy
    direction 0.998972 0.0453274 -1.50742e-007
    length 9.56202
    axis 2.65071e-005 8.63688e-006 2.59796 xyz
  end
  begin
    id 5
    name neckDummy
    direction 0.99977 0.0214525 -1.61748e-007
    length 1.93574
    axis 2.62932e-005 9.26758e-006 1.22924 xyz
    dof rx ry rz
  end
  begin
    id 6
    name neck
    direction 0.99928 -0.0379406 -1.88707e-007
    length 3.70367
    axis 2.56966e-005 1.08122e-005 -2.17436 xyz
    dof rx ry rz
  end
  begin
    id 7
    name head
    direction 0.992648 -0.121037 -2.25408e-007
    length 6.35158
    axis 2.47068e-005 1.29149e-005 -6.95196 xyz
    dof rx ry rz
  end
  begin
    id 8
    name figureHair
    direction -0.86681 -0.498639 -7.83376e-008
    length 8.29884
    axis -2.7515e-005 4.48842e-006 -150.09 xyz
    dof rx ry rz
  end
  begin
    id 9
    name lCollarDummy
    direction 0.994611 0.0451299 -0.0933417
    length 9.60395
    axis 2.65071e-005 8.63688e-006 2.59796 xyz
  end
  begin
    id 10
    name lCollar
    direction 0.0384146 0.00127577 -0.999261
    length 6.95318
    axis 90.4899 87.7973 1.90202 xyz
    dof rx ry rz
  end
  begin
    id 11
    name lShldr
    direction -0.030648 0.0920515 -0.995282
    length 9.61158
    axis -161.793 84.4324 108.415 xyz
    dof rx ry rz
  end
  begin
    id 12
    name lForeArm
    direction 0.000163956 -0.0977586 -0.99521
    length 8.6068
    axis 0.134773 84.3899 -89.8525 xyz
    dof rx ry rz
  end
  begin
    id 13
    name lHand
    direction -0.0190533 -0.1444 -0.989336
    length 7.61479
    axis -7.3729 81.6249 -97.517 xyz
    dof rx ry rz
  end
  begin
    id 14
    name rCollarDummy
    direction 0.994871 0.0442627 0.0909555
    length 9.60761
    axis 2.65071e-005 8.63688e-006 2.59796 xyz
  end
  begin
    id 15
    name rCollar
    direction 0.0334251 -4.74072e-007 0.999441
    length 6.97058
    axis -178.152 -88.0845 -0.000674207 xyz
    dof rx ry rz
  end
  begin
    id 16
    name rShldr
    direction -0.026922 0.0719509 0.997045
    length 9.60913
    axis 71.2822 -85.594 110.514 xyz
    dof rx ry rz
  end
  begin
    id 17
    name rForeArm
    direction 0.00134679 -0.118986 0.992895
    length 8.57176
    axis -88.7923 -83.1659 -89.3516 xyz
    dof rx ry rz
  end
  begin
    id 18
    name rHand
    direction -0.0185183 -0.0768601 0.99687
    length 7.69687
    axis -74.5596 -85.4655 -103.546 xyz
    dof rx ry rz
  end
  begin
    id 19
    name lThighDummy
    direction -0.236086 -0.0385456 -0.970967
    length 4.99155
    axis 0 0 0 xyz
  end
  begin
    id 20
    name lThigh
    direction -0.993968 0.0148998 -0.108653
    length 13.572
    axis -91.4001 6.23768 179.141 xyz
    dof rx ry rz
  end
  begin
    id 21
    name lShin
    direction -0.992341 0.0904576 -0.0841193
    length 18.5862
    axis -91.4558 4.82538 174.792 xyz
    dof rx ry rz
  end
  begin
    id 22
    name lFoot
    direction 0.0209381 -0.999771 -0.00453005
    length 8.44474
    axis 4.86759 0.259522 -88.8001 xyz
    dof rx ry rz
  end
  begin
    id 23
    name rThighDummy
    direction -0.236086 -0.0385456 0.970967
    length 4.99155
    axis 0 0 0 xyz
  end
  begin
    id 24
    name rThigh
    direction -0.993968 0.0148995 0.108653
    length 13.5721
    axis -89.7059 -6.2377 179.141 xyz
    dof rx ry rz
  end
  begin
    id 25
    name rShin
    direction -0.9925 0.0899962 0.0827255
    length 18.6716
    axis -89.2745 -4.74775 174.819 xyz
    dof rx ry rz
  end
  begin
    id 26
    name rFoot
    direction 0.0301721 -0.999545 9.70865e-005
    length 8.45013
    axis -2.50066e-005 -0.00555246 -88.271 xyz
    dof rx ry rz
  end
:hierarchy
  begin
    root abdomenDummy lThighDummy rThighDummy
    abdomenDummy abdomen
    abdomen chest
    chest neckDummyDummy lCollarDummy rCollarDummy
    neckDummyDummy neckDummy
    neckDummy neck
    neck head
    head figureHair
    lCollarDummy lCollar
    lCollar lShldr
    lShldr lForeArm
    lForeArm lHand
    rCollarDummy rCollar
    rCollar rShldr
    rShldr rForeArm
    rForeArm rHand
    lThighDummy lThigh
    lThigh lShin
    lShin lFoot
    rThighDummy rThigh
    rThigh rShin
    rShin rFoot
  end

:SAMPLES-PER-SECOND 25
:FULLY-SPECIFIED
:DEGREES
16
root  77.7899 36.3912 1.67054 175.573 0.80952 89.96
abdomen  0.154815 1.75216 -3.74751
chest  -0.282619 -1.77197 0.239834
neckDummy  3.03321e-021 0 6.73878e-016
neck  -1.65186 1.73946 3.5731
head  -2.16223 -3.03496 -5.66026
figureHair  0 0 -1.04948e-014
lCollar  -3.38943e-016 -6.49156e-016 -7.51406e-014
lShldr  -17.5472 5.96486 -32.6859
lForeArm  13.8904 -1.38982 -0.284295
lHand  0.254698 0.195082 5.2986
rCollar  2.67893e-016 -5.20816e-014 1.63997e-015
rShldr  20.9185 21.8802 -7.34964
rForeArm  -6.28485 1.08193 3.808
rHand  0.441732 -10.8298 0.217462
lThigh  -4.37016 -6.43583 -4.87795
lShin  -14.8838 6.41855 -4.95867
lFoot  8.54186 -0.943474 -0.145622
rThigh  9.44357 -7.22487 0.973896
rShin  8.26541 9.96709 4.81184
rFoot  -7.77656 1.05785 0.704866
17
root  77.7805 36.3676 1.68766 175.375 0.840453 89.9301
abdomen  0.379782 1.95912 -4.71092
chest  -0.147811 -2.13369 1.40998
neckDummy  3.03321e-021 0 6.73878e-016
neck  -1.89666 1.4943 3.52064
head  -2.31697 -2.78121 -5.6551
figureHair  0 0 -1.04948e-014
lCollar  -3.38943e-016 -6.49156e-016 -7.51406e-014
lShldr  -17.3356 6.00348 -32.7503
lForeArm  14.0505 -1.66925 -0.323893
lHand  0.254698 0.195082 5.2986
rCollar  2.67893e-016 -5.20816e-014 1.63997e-015
rShldr  20.7411 22.2465 -8.1759
rForeArm  -7.34116 1.0643 4.20051
rHand  0.303025 -10.7535 1.42159
lThigh  -4.35528 -6.62242 -4.93821
lShin  -15.1252 6.93199 -4.92847
lFoot  8.40958 -0.971673 0.421255
rThigh  9.38877 -7.68039 0.938804
rShin  8.20806 10.8467 4.62152
rFoot  -7.32629 1.11948 1.50617
18
root  77.7582 36.3423 1.69451 175.308 0.86125 89.7732
abdomen  0.30756 1.80513 -4.61291
chest  -0.183268 -2.05557 0.702864
neckDummy  3.03321e-021 0 6.73878e-016
neck  -1.66034 2.04684 3.92598
head  -2.28792 -3.40163 -5.27518
figureHair  0 0 -1.04948e-014
lCollar  -3.38943e-016 -6.49156e-016 -7.51406e-014
lShldr  -17.7643 5.78664 -33.179
lForeArm  14.4936 -1.98585 -0.14883
lHand  0.254698 0.195082 5.2986
rCollar  2.67893e-016 -5.20816e-014 1.63997e-015
rShldr  20.9549 23.3467 -8.37505
rForeArm  -7.86097 0.875096 4.73913
rHand  0.198292 -10.9462 2.39369
lThigh  -4.26335 -6.72999 -5.01629
lShin  -15.2954 7.53599 -4.79871
lFoot  7.79793 -0.950645 1.14844
rThigh  9.28002 -8.00761 0.961569
rShin  8.31918 11.7981 4.37616
rFoot  -6.83527 1.20375 2.54725
19
root  77.7088 36.3256 1.68294 175.486 0.894114 89.4889
abdomen  0.0289348 1.67526 -3.93062
chest  -0.409608 -1.95712 -1.26458
neckDummy  3.03321e-021 0 6.73878e-016
neck  -1.04783 3.02037 4.91235
head  -2.04511 -4.19523 -5.14755
figureHair  0 0 -1.04948e-014
lCollar  -3.38943e-016 -6.49156e-016 -7.51406e-014
lShldr  -18.716 5.48818 -34.3114
lForeArm  15.0161 -2.96141 0.254463
lHand  0.254698 0.195082 5.2986
rCollar  2.67893e-016 -5.20816e-014 1.63997e-015
rShldr  20.937 25.3592 -8.47932
rForeArm  -5.91897 0.684827 5.8595
rHand  0.297668 -12.0744 1.80244
lThigh  -4.16678 -6.57321 -5.0963
lShin  -15.1682 7.94672 -4.6473
lFoot  7.11247 -0.904383 1.74714
rThigh  9.24386 -7.9377 0.951738
rShin  8.5591 12.5152 4.20348
rFoot  -6.19419 1.25954 3.61206
20
root  77.6158 36.3151 1.65337 175.777 0.968394 89.1599
abdomen  -0.114813 1.89705 -3.82976
chest  -0.593224 -2.22341 -2.47158
neckDummy  3.03321e-021 0 6.73878e-016
neck  -0.675388 3.63816 5.98015
head  -1.91228 -4.3992 -5.35226
figureHair  0 0 -1.04948e-014
lCollar  -3.38943e-016 -6.49156e-016 -7.51406e-014
lShldr  -19.4956 5.31069 -36.2238
lForeArm  15.6044 -4.84217 0.639639
lHand  0.254698 0.195082 5.2986
rCollar  2.67893e-016 -5.20816e-014 1.63997e-015
rShldr  20.0972 28.1205 -9.28171
rForeArm  -3.72993 0.663645 7.35904
rHand  0.427745 -13.6358 1.15356
lThigh  -4.09895 -6.14867 -5.20283
lShin  -14.8868 8.04298 -4.55837
lFoot  6.89361 -0.894975 2.04296
rThigh  9.37207 -7.59407 0.818743
rShin  8.723 13.0483 4.15043
rFoot  -5.5058 1.2856 4.60386
